<?xml version="1.0" encoding="UTF-8"?>
<svg id="logo" xmlns="http://www.w3.org/2000/svg" viewBox="0 0 648 72">
  <defs>
    <style>
      .cls-1 {
        fill: #ff7710;
        stroke-width: 0px;
      }
    </style>
  </defs>
  <path class="cls-1" d="M279.39,37.57c-10.22,0-18.5,7.71-18.5,17.22s8.28,17.22,18.5,17.22,18.5-7.71,18.5-17.22-8.28-17.22-18.5-17.22ZM279.39,64c-5.79,0-10.5-4.13-10.5-9.22s4.71-9.22,10.5-9.22,10.5,4.13,10.5,9.22-4.71,9.22-10.5,9.22ZM212.3,43.81l19.77,17.8-5.29,5.88-20.39-18.36-20.39,18.36-5.29-5.88,19.77-17.8,5.91-5.32,5.91,5.32ZM212.3,18.56h0v-6.47h0v-.41h10.07V0h7.91v11.67h0v7.91h0v18.2h-7.91v-18.2h-10.07v-1.03ZM295.05,0h7.91v34.82h-7.91v-14.65h-7.34v14.65h-7.91V0h7.91v12.26h7.34V0ZM640.09,20.72h-8.52v-7.91h8.52V0h7.91v38.18h-7.91v-17.46ZM102.18,0h41.82l-41.82,26.17V0ZM208.41,1.21h-32.41v32.41h32.41V1.21ZM200.81,25.51h-17.22V9.31h17.22v16.2ZM50.26,55.12h51.93v16.88h-60.37v-2.09h0V26.17L0,0h50.26v55.12ZM268.5,35.17l-10.63-17.02-10.63,17.01-6.71-4.19,12.67-20.28,1.88-3.01h-13.4V1.21h32.37v6.47h-13.4l1.88,3.01,12.68,20.29-6.71,4.19ZM574.42,0h7.91v67.49h-7.91V30.94h-11.51v-1.43h0v-6.47h0s11.51-.01,11.51-.01V0ZM549.09,18.35l16.87,26.99-6.71,4.19-14.82-23.72-14.82,23.71-6.71-4.19,16.86-26.99h0s0,0,0,0l1.65-2.64h-16.78v-7.91h15.83V0h7.91v7.79h15.83v7.91h-16.78l1.58,2.52.11.07-.03.05ZM506.97,25.14h10.07v7.91h-10.07v34.77h-7.91V0h7.91v25.14ZM330.96,6.39c-10.63,0-19.24,8.61-19.24,19.24s8.61,19.24,19.24,19.24,19.24-8.61,19.24-19.24-8.61-19.24-19.24-19.24ZM330.96,36.77c-6.14,0-11.14-5-11.14-11.14s5-11.14,11.14-11.14,11.14,5,11.14,11.14-5,11.14-11.14,11.14ZM640.4,41.19h-39.16v18.39h0v7.91h46.75v-7.91h0v-18.39h-7.6ZM640.4,59.39h-31.56v-10.1h31.56v10.1ZM631.33,36.1h-37.6V14.61h0v-.61h24.82v-5.07h-24.62v-1.58h0V1.21h32.73v19.53h-.02v.56l-25.62.15v6.74h30.29v1.58h0v6.33h0ZM477.91,15.54l17.9,28.65-6.71,4.19-15.85-25.37-15.86,25.37-6.71-4.19,17.9-28.65h0s0,0,0,0l2.37-3.79h-17.49V3.84h39.58v7.91h-17.49l2.29,3.67.11.07-.03.05ZM360.74,0h7.91v67.82h-7.91V0ZM434.57,25.14h10.07v7.91h-10.07v34.77h-7.91V0h7.91v25.14ZM404.04,14.73l18.41,29.45-6.71,4.19-15.86-25.37-15.86,25.37-6.71-4.19,18.41-29.45V3.47h8.32v11.27Z"/>
</svg>